<?xml version="1.0" encoding="UTF-8"?>
<svg width="788px" height="264px" viewBox="0 0 788 264" version="1.1" xmlns="http://www.w3.org/2000/svg" xmlns:xlink="http://www.w3.org/1999/xlink">
    <!-- Generator: Sketch 51.2 (57519) - http://www.bohemiancoding.com/sketch -->
    <title>tech</title>
    <desc>Created with Sketch.</desc>
    <defs>
        <linearGradient x1="94.4662868%" y1="0%" x2="5.26478745%" y2="98.8032876%" id="linearGradient-1">
            <stop stop-color="#02A8D8" offset="0%"></stop>
            <stop stop-color="#02A8D8" offset="51.2983201%"></stop>
            <stop stop-color="#02A8D8" offset="100%"></stop>
        </linearGradient>
    </defs>
    <g id="Page-1" stroke="none" stroke-width="1" fill="none" fill-rule="evenodd">
        <g id="Desktop" transform="translate(-137.000000, -2503.000000)">
            <g id="tech" transform="translate(137.000000, 2503.000000)">
                <rect id="Rectangle-19" stroke="#979797" fill="#FFFFFF" fill-rule="nonzero" x="0.5" y="0.5" width="787" height="263"></rect>
                <g id="logo" transform="translate(566.000000, 37.000000)">
                    <text id="PDFSwitch" font-family="SourceSansPro-Bold, Source Sans Pro" font-size="20" font-weight="bold" letter-spacing="0.2040816" fill="#2A7DE2">
                        <tspan x="31.8116328" y="22">PDF</tspan>
                        <tspan x="67.5238776" y="22" font-family="SourceSansPro-Regular, Source Sans Pro" font-weight="normal">Switch</tspan>
                    </text>
                    <g fill-rule="nonzero">
                        <g id="2" transform="translate(15.193274, 20.382525) rotate(-27.000000) translate(-15.193274, -20.382525) translate(2.193274, 15.882525)">
                            <path d="M21.577381,8.4375 L4.31547619,8.4375 C1.9321045,8.4375 0,6.54870129 0,4.21875 C0,1.88879871 1.9321045,0 4.31547619,0 L21.577381,0 C23.9607526,4.97584839e-14 25.8928571,1.88879871 25.8928571,4.21875 C25.8928571,6.54870129 23.9607526,8.4375 21.577381,8.4375 Z" id="Combined-Shape" fill="#2A7DE2"></path>
                            <ellipse id="Oval" fill="#FFFFFF" cx="20.7142857" cy="4.21875" rx="3.45238095" ry="3.375"></ellipse>
                        </g>
                        <g id="1" transform="translate(14.157560, 10.070025) rotate(-27.000000) translate(-14.157560, -10.070025) translate(1.157560, 5.570025)">
                            <path d="M21.577381,8.4375 L4.31547619,8.4375 C1.9321045,8.4375 0,6.54870129 0,4.21875 C0,1.88879871 1.9321045,0 4.31547619,0 L21.577381,0 C23.9607526,7.77476311e-15 25.8928571,1.88879871 25.8928571,4.21875 C25.8928571,6.54870129 23.9607526,8.4375 21.577381,8.4375 Z" id="Combined-Shape" fill="#2A7DE2"></path>
                            <ellipse id="Oval" fill="#FFFFFF" cx="5.17857143" cy="4.21875" rx="3.45238095" ry="3.375"></ellipse>
                        </g>
                    </g>
                </g>
                <g id="browsers" transform="translate(575.000000, 78.000000)">
                    <g id="browser" fill-rule="nonzero">
                        <rect id="Rectangle-path" fill="#ECF0F1" x="0" y="10" width="96" height="57"></rect>
                        <rect id="Rectangle-path" fill="#546A79" x="0" y="0" width="96" height="10"></rect>
                        <circle id="Oval" fill="#ED7161" cx="6" cy="5" r="3"></circle>
                        <circle id="Oval" fill="#F0C419" cx="15" cy="5" r="3"></circle>
                        <circle id="Oval" fill="#4FBA6F" cx="24" cy="5" r="3"></circle>
                    </g>
                    <g id="browser" transform="translate(7.000000, 7.000000)" fill-rule="nonzero">
                        <rect id="Rectangle-path" fill="#ECF0F1" x="0" y="10" width="96" height="57"></rect>
                        <rect id="Rectangle-path" fill="#546A79" x="0" y="0" width="96" height="10"></rect>
                        <circle id="Oval" fill="#ED7161" cx="6" cy="5" r="3"></circle>
                        <circle id="Oval" fill="#F0C419" cx="15" cy="5" r="3"></circle>
                        <circle id="Oval" fill="#4FBA6F" cx="24" cy="5" r="3"></circle>
                    </g>
                    <g id="browser" transform="translate(15.000000, 15.000000)">
                        <rect id="Rectangle-path" fill="#ECF0F1" fill-rule="nonzero" x="0" y="10" width="96" height="57"></rect>
                        <rect id="Rectangle-path" fill="#546A79" fill-rule="nonzero" x="0" y="0" width="96" height="10"></rect>
                        <circle id="Oval" fill="#ED7161" fill-rule="nonzero" cx="6" cy="5" r="3"></circle>
                        <circle id="Oval" fill="#F0C419" fill-rule="nonzero" cx="15" cy="5" r="3"></circle>
                        <circle id="Oval" fill="#4FBA6F" fill-rule="nonzero" cx="24" cy="5" r="3"></circle>
                        <g id="pdf" transform="translate(16.000000, 15.000000)">
                            <g>
                                <rect id="Rectangle-17" fill="url(#linearGradient-1)" fill-rule="nonzero" x="0" y="0" width="64" height="47" rx="10"></rect>
                                <g id="PDF" transform="translate(9.846154, 5.739005)">
                                    <g id="content" transform="translate(0.000000, 11.908709)" fill="#3E3CCC" fill-rule="nonzero">
                                        <rect id="Rectangle-7" x="0.186791766" y="0.192522321" width="25.7930919" height="1.53038411" rx="0.765192057"></rect>
                                        <rect id="Rectangle-7" x="0.186791766" y="3.58997505" width="25.7930919" height="1.53038411" rx="0.765192057"></rect>
                                        <rect id="Rectangle-7" x="0.186791766" y="7.27054884" width="25.7930919" height="1.53038411" rx="0.765192057"></rect>
                                        <rect id="Rectangle-7" x="0.186791766" y="10.7827804" width="44.4242348" height="1.53038411" rx="0.765192057"></rect>
                                        <rect id="Rectangle-7" x="0.186791766" y="14.7464752" width="10.71659" height="1.53038411" rx="0.765192057"></rect>
                                        <rect id="Rectangle-7" x="11.5682073" y="14.7464752" width="33.0428192" height="1.53038411" rx="0.765192057"></rect>
                                        <rect id="Rectangle-7" x="0.186791766" y="18.7101701" width="28.5806266" height="1.53038411" rx="0.765192057"></rect>
                                        <rect id="Rectangle-7" x="29.5581867" y="18.7101701" width="15.0528399" height="1.53038411" rx="0.765192057"></rect>
                                        <rect id="Rectangle-7" x="0.186791766" y="22.6738649" width="44.4242348" height="1.53038411" rx="0.765192057"></rect>
                                    </g>
                                    <g id="text" transform="translate(0.186792, 0.000000)">
                                        <rect id="Rectangle-7" fill="#3E3CCC" fill-rule="nonzero" x="0" y="0" width="44.4242348" height="11.0818681" rx="3"></rect>
                                        <text id="PDF" font-family="SourceSansPro-Bold, Source Sans Pro" font-size="9" font-weight="bold" letter-spacing="0.25170064" fill="#FFFFFF">
                                            <tspan x="13.5757576" y="9">PDF</tspan>
                                        </text>
                                    </g>
                                    <g id="image-placeholder" transform="translate(27.440057, 11.778474)" fill-rule="nonzero">
                                        <rect id="Rectangle-7" fill="#3E3CCC" x="0.26944133" y="0.322758009" width="16.901528" height="8.77675289" rx="3"></rect>
                                        <path d="M6.81981196,7.33283548 L10.0258127,3.43708968 L14.6856974,9.0995109 L8.16185877,9.0995109 L2.56999705,9.0995109 L5.36592791,5.41893711 L6.81981196,7.33283548 Z" id="Combined-Shape" fill="#02A8D8"></path>
                                        <ellipse id="Oval-9" fill="#02A8D8" cx="5.6765869" cy="3.15396862" rx="1.24263594" ry="1.13248424"></ellipse>
                                    </g>
                                </g>
                            </g>
                        </g>
                    </g>
                </g>
                <g id="arrows" transform="translate(59.000000, 53.000000)">
                    <text id="Clients(You)" font-family="SourceSansPro-SemiBold, Source Sans Pro" font-size="20" font-weight="500" fill="#000000">
                        <tspan x="0" y="133">Clients(You)</tspan>
                    </text>
                    <text id="PDFSwitch-Servers" font-family="SourceSansPro-SemiBold, Source Sans Pro" font-size="18" font-weight="500" fill="#000000">
                        <tspan x="498" y="133">PDFSwitch Servers</tspan>
                    </text>
                    <path d="M477.5,0.208333333 L503,0.208333333" id="Line-4" stroke="#546A79" stroke-width="2" stroke-linecap="square" fill-rule="nonzero"></path>
                    <path d="M637.5,0.208333333 L663,0.208333333" id="Line-4" stroke="#546A79" stroke-width="2" stroke-linecap="square" fill-rule="nonzero"></path>
                    <path d="M477.5,128.208333 L488,128.208333" id="Line-4" stroke="#546A79" stroke-width="2" stroke-linecap="square" fill-rule="nonzero"></path>
                    <path d="M653.5,128.208333 L664,128.208333" id="Line-4" stroke="#546A79" stroke-width="2" stroke-linecap="square" fill-rule="nonzero"></path>
                    <path d="M476.841667,0.55 L476.841667,128" id="Line-4" stroke="#546A79" stroke-width="2" stroke-linecap="square" fill-rule="nonzero"></path>
                    <path d="M663.841667,0.55 L663.841667,128" id="Line-4" stroke="#546A79" stroke-width="2" stroke-linecap="square" fill-rule="nonzero"></path>
                    <text id="send-URL-or-raw-HTML" font-family="SourceSansPro-SemiBold, Source Sans Pro" font-size="16" font-weight="500" fill="#000000">
                        <tspan x="203" y="118">send URL or raw HTML</tspan>
                    </text>
                    <text id="Our-browser-based-PD" font-family="SourceSansPro-SemiBold, Source Sans Pro" font-size="14" font-weight="500" line-spacing="15" fill="#000000">
                        <tspan x="450" y="166">Our browser-based PDF render engine</tspan>
                        <tspan x="450" y="181">loads and converts your document to PDF</tspan>
                    </text>
                    <text id="Returns-binary-PDF-o" font-family="SourceSansPro-SemiBold, Source Sans Pro" font-size="16" font-weight="500" fill="#000000">
                        <tspan x="169" y="48">Returns binary PDF or AWS S3 URL</tspan>
                    </text>
                </g>
                <g id="arrow-right" transform="translate(184.000000, 136.000000)" fill-rule="nonzero">
                    <path d="M0.5,6.5 L302.5,6.5" id="Line-5" stroke="#000000" stroke-width="2.5" stroke-linecap="square"></path>
                    <polygon id="Triangle-2" fill="#000000" transform="translate(306.500000, 6.500000) rotate(90.000000) translate(-306.500000, -6.500000) " points="306.5 0 313 13 300 13"></polygon>
                </g>
                <g id="arrow-right" transform="translate(337.500000, 122.500000) rotate(180.000000) translate(-337.500000, -122.500000) translate(181.000000, 116.000000)" fill-rule="nonzero">
                    <path d="M0.5,6.5 L302.5,6.5" id="Line-5" stroke="#000000" stroke-width="2.5" stroke-linecap="square"></path>
                    <polygon id="Triangle-2" fill="#000000" transform="translate(306.500000, 6.500000) rotate(90.000000) translate(-306.500000, -6.500000) " points="306.5 0 313 13 300 13"></polygon>
                </g>
                <g id="clients" transform="translate(72.000000, 93.000000)" fill="#000000" fill-rule="nonzero">
                    <path d="M43.5554127,29.3607388 C46.984433,26.3451965 49.2027992,21.6835229 49.2027992,16.440027 C49.2027992,7.37211398 42.6036847,0 34.5,0 C26.3963153,0 19.7972008,7.37211398 19.7972008,16.4329316 C19.7972008,21.6764275 22.015567,26.3451965 25.4445873,29.3536434 C16.4101685,33.3909224 10,43.2606149 10,54.7835342 L10,60.2611781 C10,61.7724969 11.0986861,63 12.4493002,63 L56.5506998,63 C57.9083119,63 59,61.7724969 59,60.2611781 L59,54.7835342 C59,43.2606149 52.5898315,33.3980178 43.5554127,29.3607388 Z M24.6958012,16.440027 C24.6958012,10.3947517 29.0905456,5.48473927 34.5,5.48473927 C39.9024564,5.48473927 44.3041988,10.4018471 44.3041988,16.440027 C44.3041988,22.4853024 39.9094544,27.3953148 34.5,27.3953148 C29.0905456,27.3953148 24.6958012,22.478207 24.6958012,16.440027 Z M54.1013996,57.5294515 L14.8986004,57.5294515 L14.8986004,54.7906296 C14.8986004,42.7071742 23.6950871,32.8729587 34.5,32.8729587 C45.3049129,32.8729587 54.1013996,42.7071742 54.1013996,54.7906296 L54.1013996,57.5294515 Z" id="Shape"></path>
                    <path d="M16.6253033,32.2489925 L17.1202773,32.1220495 C18.1902946,31.7412205 18.9473137,30.7397812 18.9473137,29.5620322 C18.9473137,28.4265976 18.2339688,27.4533679 17.2294627,27.0443293 C14.4998267,25.7184801 12.7383016,22.8128958 12.7383016,19.6111111 C12.7383016,15.9791307 14.9729636,12.9254462 18.044714,11.8605354 C18.5833622,10.0903857 19.3913345,8.44717904 20.4322357,7.00143926 C20.6142114,6.68408175 20.8034662,6.36672424 21,6.0634715 C20.7961872,6.04936672 20.5996534,6 20.3885615,6 C13.3642981,6 7.64298094,12.107369 7.64298094,19.6181635 C7.64298094,23.0667818 8.87313692,26.2967761 10.9549393,28.7510075 C4.3237435,32.4182499 0,39.759787 0,48.0675014 L0,52.2777778 C0,53.7799367 1.14280763,55 2.54766031,55 L7.11161179,55 C7.11161179,53.1381693 7.28630849,51.3116005 7.62842288,49.5555556 L5.09532062,49.5555556 L5.09532062,48.0675014 C5.09532062,40.5426022 9.8339688,34.0826137 16.6253033,32.2489925 Z" id="Shape"></path>
                    <path d="M59.0377816,28.7444604 C61.1268631,26.2909353 62.3570191,23.0618705 62.3570191,19.6142446 C62.3570191,12.1056115 56.6429809,6 49.6114385,6 C49.4003466,6 49.2038128,6.05640288 49,6.06345324 C49.1965338,6.37366906 49.3857886,6.68388489 49.5677643,7.00115108 C50.6013865,8.45352518 51.4166378,10.0892086 51.955286,11.8588489 C55.0270364,12.9164029 57.2616984,15.976259 57.2616984,19.6071942 C57.2616984,22.8080576 55.5001733,25.7198561 52.7705373,27.0382734 C51.7587522,27.4471942 51.0526863,28.4201439 51.0526863,29.5552518 C51.0526863,30.7326619 51.8169844,31.7338129 52.8797227,32.1145324 L53.3746967,32.2414388 C60.1660312,34.0745324 64.9046794,40.5326619 64.9046794,48.0553957 L64.9046794,49.5571223 L62.3715771,49.5571223 C62.7064125,51.3197122 62.8883882,53.138705 62.8883882,55 L67.4523397,55 C68.8644714,55 70,53.7802878 70,52.2785612 L70,48.0694964 C70,39.7571223 65.6762565,32.4176978 59.0377816,28.7444604 Z" id="Shape"></path>
                </g>
            </g>
        </g>
    </g>
</svg>